<svg width="161" height="32" viewBox="0 0 161 32" fill="none" xmlns="http://www.w3.org/2000/svg">
<g clip-path="url(#clip0_6_23)">
<path d="M0 8.42105C0 3.77023 3.9416 0 8.80382 0H24.6507C29.513 0 33.4545 3.77023 33.4545 8.42105V23.5789C33.4545 28.2298 29.513 32 24.6507 32H8.80382C3.9416 32 0 28.2298 0 23.5789V8.42105Z" fill="#AD46FF"/>
<g filter="url(#filter0_d_6_23)">
<path d="M8.80673 8.42153C8.80673 7.49136 9.59505 6.7373 10.5675 6.7373C11.5399 6.7373 12.3282 7.49136 12.3282 8.42153V23.5794C12.3282 24.5096 11.5399 25.2636 10.5675 25.2636C9.59505 25.2636 8.80673 24.5096 8.80673 23.5794V8.42153Z" fill="white"/>
</g>
<g filter="url(#filter1_d_6_23)">
<path d="M15.4123 15.1569C15.4123 14.2267 16.2006 13.4727 17.173 13.4727C18.1455 13.4727 18.9338 14.2267 18.9338 15.1569V23.5779C18.9338 24.5081 18.1455 25.2621 17.173 25.2621C16.2006 25.2621 15.4123 24.5081 15.4123 23.5779V15.1569Z" fill="white" fill-opacity="0.9"/>
</g>
<g filter="url(#filter2_d_6_23)">
<path d="M22.0117 10.9459C22.0117 10.0158 22.8 9.26172 23.7725 9.26172C24.745 9.26172 25.5332 10.0158 25.5332 10.9459V23.5775C25.5332 24.5077 24.745 25.2617 23.7725 25.2617C22.8 25.2617 22.0117 24.5077 22.0117 23.5775V10.9459Z" fill="white" fill-opacity="0.7"/>
</g>
<path d="M52.3729 22.5391V25H44.8045V22.5391H52.3729ZM45.8885 10.7812V25H42.7049V10.7812H45.8885ZM51.3963 16.5039V18.8867H44.8045V16.5039H51.3963ZM52.3827 10.7812V13.252H44.8045V10.7812H52.3827ZM56.992 10V25H53.9354V10H56.992ZM62.3729 23.7793L65.1366 14.4336H68.4178L64.1698 26.582C64.0786 26.849 63.9549 27.1354 63.7987 27.4414C63.6489 27.7474 63.4439 28.0404 63.1834 28.3203C62.9295 28.6003 62.604 28.8281 62.2069 29.0039C61.8097 29.1797 61.3215 29.2676 60.742 29.2676C60.4491 29.2676 60.2212 29.2513 60.0584 29.2188C59.9022 29.1927 59.6939 29.1471 59.4334 29.082L59.4237 26.8652C59.5083 26.8652 59.5832 26.8652 59.6483 26.8652C59.7199 26.8717 59.7915 26.875 59.8631 26.875C60.2277 26.875 60.5207 26.8359 60.742 26.7578C60.9699 26.6797 61.1457 26.5625 61.2694 26.4062C61.3996 26.2565 61.5038 26.0645 61.5819 25.8301L62.3729 23.7793ZM61.4452 14.4336L63.6327 21.9531L64.0038 25.1855L61.9432 25.293L58.1639 14.4336H61.4452ZM80.1463 20.0586H76.5721V17.5879H80.1463C80.6737 17.5879 81.0969 17.5 81.4159 17.3242C81.7414 17.1484 81.979 16.9076 82.1288 16.6016C82.285 16.2891 82.3631 15.9375 82.3631 15.5469C82.3631 15.1432 82.285 14.7689 82.1288 14.4238C81.979 14.0723 81.7414 13.7891 81.4159 13.5742C81.0969 13.3594 80.6737 13.252 80.1463 13.252H77.7245V25H74.5409V10.7812H80.1463C81.2791 10.7812 82.2492 10.9863 83.0565 11.3965C83.8703 11.8066 84.492 12.3698 84.9217 13.0859C85.3579 13.7956 85.576 14.6094 85.576 15.5273C85.576 16.4453 85.3579 17.2428 84.9217 17.9199C84.492 18.597 83.8703 19.1243 83.0565 19.502C82.2492 19.873 81.2791 20.0586 80.1463 20.0586ZM92.8319 22.4805V17.9492C92.8319 17.6302 92.7831 17.3568 92.6854 17.1289C92.5877 16.901 92.4347 16.722 92.2264 16.5918C92.0181 16.4616 91.7479 16.3965 91.4159 16.3965C91.1359 16.3965 90.8918 16.4453 90.6834 16.543C90.4816 16.6406 90.3254 16.7806 90.2147 16.9629C90.1105 17.1452 90.0584 17.3698 90.0584 17.6367H87.0116C87.0116 17.1615 87.119 16.7188 87.3338 16.3086C87.5487 15.8984 87.8547 15.5371 88.2518 15.2246C88.6554 14.9121 89.1372 14.6712 89.6971 14.502C90.257 14.3262 90.8853 14.2383 91.5819 14.2383C92.4087 14.2383 93.1444 14.3783 93.7889 14.6582C94.44 14.9316 94.9543 15.3451 95.3319 15.8984C95.7095 16.4453 95.8983 17.1354 95.8983 17.9688V22.3926C95.8983 23.0306 95.9341 23.5319 96.0057 23.8965C96.0838 24.2546 96.1945 24.5671 96.3377 24.834V25H93.2616C93.1183 24.694 93.0109 24.3164 92.9393 23.8672C92.8677 23.4115 92.8319 22.9492 92.8319 22.4805ZM93.2127 18.5547L93.2323 20.2344H91.7186C91.3801 20.2344 91.0871 20.2767 90.8397 20.3613C90.5988 20.446 90.4035 20.5632 90.2538 20.7129C90.104 20.8561 89.9933 21.0254 89.9217 21.2207C89.8566 21.4095 89.8241 21.6178 89.8241 21.8457C89.8241 22.0605 89.8761 22.2559 89.9803 22.4316C90.0845 22.6009 90.2277 22.7344 90.41 22.832C90.5923 22.9297 90.8039 22.9785 91.0448 22.9785C91.4419 22.9785 91.7804 22.9004 92.0604 22.7441C92.3469 22.5879 92.5682 22.3991 92.7245 22.1777C92.8807 21.9499 92.9588 21.7383 92.9588 21.543L93.6913 22.8125C93.5741 23.0729 93.4308 23.3431 93.2616 23.623C93.0923 23.8965 92.8775 24.1536 92.617 24.3945C92.3566 24.6289 92.0409 24.821 91.6698 24.9707C91.3052 25.1204 90.8657 25.1953 90.3514 25.1953C89.6873 25.1953 89.0851 25.0618 88.5448 24.7949C88.0044 24.5215 87.5715 24.1471 87.2459 23.6719C86.9269 23.1966 86.7674 22.6497 86.7674 22.0312C86.7674 21.4779 86.8683 20.9863 87.0702 20.5566C87.272 20.127 87.5747 19.7624 87.9784 19.4629C88.3885 19.1634 88.9028 18.9388 89.5213 18.7891C90.1398 18.6328 90.8625 18.5547 91.6893 18.5547H93.2127ZM100.957 16.4648V29.0625H97.91V14.4336H100.752L100.957 16.4648ZM107.549 19.5996V19.8047C107.549 20.5729 107.461 21.2858 107.285 21.9434C107.109 22.5944 106.846 23.1641 106.494 23.6523C106.149 24.1406 105.723 24.5215 105.215 24.7949C104.707 25.0618 104.118 25.1953 103.447 25.1953C102.809 25.1953 102.256 25.0618 101.787 24.7949C101.325 24.5215 100.934 24.1439 100.615 23.6621C100.303 23.1738 100.049 22.6172 99.8534 21.9922C99.6646 21.3607 99.5181 20.6868 99.4139 19.9707V19.5703C99.5181 18.8086 99.6678 18.1022 99.8631 17.4512C100.058 16.8001 100.312 16.237 100.625 15.7617C100.937 15.2799 101.325 14.9056 101.787 14.6387C102.249 14.3717 102.799 14.2383 103.437 14.2383C104.101 14.2383 104.691 14.3652 105.205 14.6191C105.719 14.873 106.149 15.2376 106.494 15.7129C106.846 16.1816 107.109 16.7448 107.285 17.4023C107.461 18.0599 107.549 18.7923 107.549 19.5996ZM104.492 19.8047V19.5996C104.492 19.1699 104.459 18.776 104.394 18.418C104.329 18.0534 104.225 17.7376 104.082 17.4707C103.939 17.1973 103.75 16.9857 103.515 16.8359C103.281 16.6862 102.995 16.6113 102.656 16.6113C102.292 16.6113 101.982 16.6699 101.728 16.7871C101.474 16.9043 101.269 17.0768 101.113 17.3047C100.957 17.526 100.843 17.7995 100.771 18.125C100.706 18.4505 100.67 18.8216 100.664 19.2383V20.3125C100.67 20.8008 100.739 21.237 100.869 21.6211C101.006 21.9987 101.217 22.2949 101.504 22.5098C101.797 22.7181 102.187 22.8223 102.676 22.8223C103.021 22.8223 103.307 22.7474 103.535 22.5977C103.769 22.4414 103.955 22.2233 104.092 21.9434C104.235 21.6634 104.336 21.3411 104.394 20.9766C104.459 20.612 104.492 20.2214 104.492 19.8047ZM114.15 25.1953C113.31 25.1953 112.558 25.0618 111.894 24.7949C111.23 24.528 110.667 24.1602 110.205 23.6914C109.749 23.2161 109.401 22.6693 109.16 22.0508C108.919 21.4323 108.799 20.7715 108.799 20.0684V19.6973C108.799 18.9095 108.909 18.1836 109.131 17.5195C109.352 16.8555 109.674 16.2793 110.098 15.791C110.527 15.2962 111.055 14.9154 111.68 14.6484C112.305 14.375 113.017 14.2383 113.818 14.2383C114.567 14.2383 115.234 14.362 115.82 14.6094C116.406 14.8503 116.901 15.1986 117.305 15.6543C117.708 16.1035 118.014 16.6471 118.223 17.2852C118.437 17.9167 118.545 18.6263 118.545 19.4141V20.6641H110.029V18.7012H115.556V18.4668C115.556 18.0957 115.488 17.7702 115.351 17.4902C115.221 17.2103 115.026 16.9954 114.765 16.8457C114.512 16.6895 114.189 16.6113 113.799 16.6113C113.428 16.6113 113.118 16.6895 112.871 16.8457C112.624 17.002 112.425 17.2233 112.275 17.5098C112.132 17.7897 112.028 18.1185 111.963 18.4961C111.898 18.8672 111.865 19.2676 111.865 19.6973V20.0684C111.865 20.4785 111.92 20.8529 112.031 21.1914C112.142 21.5299 112.305 21.8197 112.519 22.0605C112.734 22.3014 112.995 22.4902 113.301 22.627C113.607 22.7637 113.955 22.832 114.346 22.832C114.827 22.832 115.286 22.7409 115.723 22.5586C116.159 22.3698 116.536 22.0768 116.855 21.6797L118.281 23.3105C118.066 23.623 117.764 23.9258 117.373 24.2188C116.989 24.5052 116.527 24.7396 115.986 24.9219C115.446 25.1042 114.834 25.1953 114.15 25.1953ZM123.242 10V25H120.185V10H123.242ZM130.42 25.1953C129.58 25.1953 128.828 25.0618 128.164 24.7949C127.5 24.528 126.937 24.1602 126.474 23.6914C126.019 23.2161 125.67 22.6693 125.43 22.0508C125.189 21.4323 125.068 20.7715 125.068 20.0684V19.6973C125.068 18.9095 125.179 18.1836 125.4 17.5195C125.622 16.8555 125.944 16.2793 126.367 15.791C126.797 15.2962 127.324 14.9154 127.949 14.6484C128.574 14.375 129.287 14.2383 130.088 14.2383C130.836 14.2383 131.504 14.362 132.09 14.6094C132.676 14.8503 133.17 15.1986 133.574 15.6543C133.978 16.1035 134.284 16.6471 134.492 17.2852C134.707 17.9167 134.814 18.6263 134.814 19.4141V20.6641H126.299V18.7012H131.826V18.4668C131.826 18.0957 131.758 17.7702 131.621 17.4902C131.491 17.2103 131.295 16.9954 131.035 16.8457C130.781 16.6895 130.459 16.6113 130.068 16.6113C129.697 16.6113 129.388 16.6895 129.14 16.8457C128.893 17.002 128.695 17.2233 128.545 17.5098C128.402 17.7897 128.297 18.1185 128.232 18.4961C128.167 18.8672 128.135 19.2676 128.135 19.6973V20.0684C128.135 20.4785 128.19 20.8529 128.301 21.1914C128.411 21.5299 128.574 21.8197 128.789 22.0605C129.004 22.3014 129.264 22.4902 129.57 22.627C129.876 22.7637 130.224 22.832 130.615 22.832C131.097 22.832 131.556 22.7409 131.992 22.5586C132.428 22.3698 132.806 22.0768 133.125 21.6797L134.551 23.3105C134.336 23.623 134.033 23.9258 133.642 24.2188C133.258 24.5052 132.796 24.7396 132.256 24.9219C131.715 25.1042 131.103 25.1953 130.42 25.1953ZM139.355 16.8945V25H136.308V14.4336H139.17L139.355 16.8945ZM142.51 14.3555L142.461 17.1973C142.331 17.1777 142.161 17.1615 141.953 17.1484C141.745 17.1289 141.566 17.1191 141.416 17.1191C141.025 17.1191 140.687 17.168 140.4 17.2656C140.12 17.3568 139.886 17.4935 139.697 17.6758C139.515 17.8581 139.378 18.0859 139.287 18.3594C139.196 18.6263 139.15 18.9355 139.15 19.2871L138.574 19.0039C138.574 18.3073 138.642 17.6693 138.779 17.0898C138.916 16.5104 139.114 16.0091 139.375 15.5859C139.635 15.1562 139.954 14.8242 140.332 14.5898C140.709 14.3555 141.139 14.2383 141.621 14.2383C141.777 14.2383 141.937 14.248 142.099 14.2676C142.262 14.2871 142.399 14.3164 142.51 14.3555ZM147.06 14.4336V25H144.004V14.4336H147.06ZM144.111 13.2129L146.045 10.1758H149.306L146.601 13.2129H144.111ZM154.941 22.4805V17.9492C154.941 17.6302 154.892 17.3568 154.795 17.1289C154.697 16.901 154.544 16.722 154.336 16.5918C154.127 16.4616 153.857 16.3965 153.525 16.3965C153.245 16.3965 153.001 16.4453 152.793 16.543C152.591 16.6406 152.435 16.7806 152.324 16.9629C152.22 17.1452 152.168 17.3698 152.168 17.6367H149.121C149.121 17.1615 149.228 16.7188 149.443 16.3086C149.658 15.8984 149.964 15.5371 150.361 15.2246C150.765 14.9121 151.247 14.6712 151.806 14.502C152.366 14.3262 152.995 14.2383 153.691 14.2383C154.518 14.2383 155.254 14.3783 155.898 14.6582C156.549 14.9316 157.064 15.3451 157.441 15.8984C157.819 16.4453 158.008 17.1354 158.008 17.9688V22.3926C158.008 23.0306 158.043 23.5319 158.115 23.8965C158.193 24.2546 158.304 24.5671 158.447 24.834V25H155.371C155.228 24.694 155.12 24.3164 155.049 23.8672C154.977 23.4115 154.941 22.9492 154.941 22.4805ZM155.322 18.5547L155.342 20.2344H153.828C153.489 20.2344 153.196 20.2767 152.949 20.3613C152.708 20.446 152.513 20.5632 152.363 20.7129C152.213 20.8561 152.103 21.0254 152.031 21.2207C151.966 21.4095 151.933 21.6178 151.933 21.8457C151.933 22.0605 151.986 22.2559 152.09 22.4316C152.194 22.6009 152.337 22.7344 152.519 22.832C152.702 22.9297 152.913 22.9785 153.154 22.9785C153.551 22.9785 153.89 22.9004 154.17 22.7441C154.456 22.5879 154.678 22.3991 154.834 22.1777C154.99 21.9499 155.068 21.7383 155.068 21.543L155.801 22.8125C155.683 23.0729 155.54 23.3431 155.371 23.623C155.202 23.8965 154.987 24.1536 154.726 24.3945C154.466 24.6289 154.15 24.821 153.779 24.9707C153.415 25.1204 152.975 25.1953 152.461 25.1953C151.797 25.1953 151.195 25.0618 150.654 24.7949C150.114 24.5215 149.681 24.1471 149.355 23.6719C149.036 23.1966 148.877 22.6497 148.877 22.0312C148.877 21.4779 148.978 20.9863 149.18 20.5566C149.381 20.127 149.684 19.7624 150.088 19.4629C150.498 19.1634 151.012 18.9388 151.631 18.7891C152.249 18.6328 152.972 18.5547 153.799 18.5547H155.322Z" fill="#FDFDFD"/>
</g>
<defs>
<filter id="filter0_d_6_23" x="7.80673" y="6.2373" width="5.52148" height="20.5263" filterUnits="userSpaceOnUse" color-interpolation-filters="sRGB">
<feFlood flood-opacity="0" result="BackgroundImageFix"/>
<feColorMatrix in="SourceAlpha" type="matrix" values="0 0 0 0 0 0 0 0 0 0 0 0 0 0 0 0 0 0 127 0" result="hardAlpha"/>
<feOffset dy="0.5"/>
<feGaussianBlur stdDeviation="0.5"/>
<feComposite in2="hardAlpha" operator="out"/>
<feColorMatrix type="matrix" values="0 0 0 0 0 0 0 0 0 0 0 0 0 0 0 0 0 0 0.12 0"/>
<feBlend mode="normal" in2="BackgroundImageFix" result="effect1_dropShadow_6_23"/>
<feBlend mode="normal" in="SourceGraphic" in2="effect1_dropShadow_6_23" result="shape"/>
</filter>
<filter id="filter1_d_6_23" x="14.4123" y="12.9727" width="5.52151" height="13.7894" filterUnits="userSpaceOnUse" color-interpolation-filters="sRGB">
<feFlood flood-opacity="0" result="BackgroundImageFix"/>
<feColorMatrix in="SourceAlpha" type="matrix" values="0 0 0 0 0 0 0 0 0 0 0 0 0 0 0 0 0 0 127 0" result="hardAlpha"/>
<feOffset dy="0.5"/>
<feGaussianBlur stdDeviation="0.5"/>
<feComposite in2="hardAlpha" operator="out"/>
<feColorMatrix type="matrix" values="0 0 0 0 0 0 0 0 0 0 0 0 0 0 0 0 0 0 0.12 0"/>
<feBlend mode="normal" in2="BackgroundImageFix" result="effect1_dropShadow_6_23"/>
<feBlend mode="normal" in="SourceGraphic" in2="effect1_dropShadow_6_23" result="shape"/>
</filter>
<filter id="filter2_d_6_23" x="21.0117" y="8.76172" width="5.52151" height="18" filterUnits="userSpaceOnUse" color-interpolation-filters="sRGB">
<feFlood flood-opacity="0" result="BackgroundImageFix"/>
<feColorMatrix in="SourceAlpha" type="matrix" values="0 0 0 0 0 0 0 0 0 0 0 0 0 0 0 0 0 0 127 0" result="hardAlpha"/>
<feOffset dy="0.5"/>
<feGaussianBlur stdDeviation="0.5"/>
<feComposite in2="hardAlpha" operator="out"/>
<feColorMatrix type="matrix" values="0 0 0 0 0 0 0 0 0 0 0 0 0 0 0 0 0 0 0.12 0"/>
<feBlend mode="normal" in2="BackgroundImageFix" result="effect1_dropShadow_6_23"/>
<feBlend mode="normal" in="SourceGraphic" in2="effect1_dropShadow_6_23" result="shape"/>
</filter>
<clipPath id="clip0_6_23">
<rect width="161" height="32" fill="white"/>
</clipPath>
</defs>
</svg>
