<svg width="161" height="32" viewBox="0 0 161 32" fill="none" xmlns="http://www.w3.org/2000/svg">
<g clip-path="url(#clip0_6_3)">
<path d="M0 8.42105C0 3.77023 3.9416 0 8.80382 0H24.6507C29.513 0 33.4545 3.77023 33.4545 8.42105V23.5789C33.4545 28.2298 29.513 32 24.6507 32H8.80382C3.9416 32 0 28.2298 0 23.5789V8.42105Z" fill="#AD46FF"/>
<g filter="url(#filter0_d_6_3)">
<path d="M8.80673 8.42153C8.80673 7.49136 9.59505 6.7373 10.5675 6.7373C11.5399 6.7373 12.3282 7.49136 12.3282 8.42153V23.5794C12.3282 24.5096 11.5399 25.2636 10.5675 25.2636C9.59505 25.2636 8.80673 24.5096 8.80673 23.5794V8.42153Z" fill="white"/>
</g>
<g filter="url(#filter1_d_6_3)">
<path d="M15.4123 15.1569C15.4123 14.2267 16.2006 13.4727 17.173 13.4727C18.1455 13.4727 18.9338 14.2267 18.9338 15.1569V23.5779C18.9338 24.5081 18.1455 25.2621 17.173 25.2621C16.2006 25.2621 15.4123 24.5081 15.4123 23.5779V15.1569Z" fill="white" fill-opacity="0.9"/>
</g>
<g filter="url(#filter2_d_6_3)">
<path d="M22.0117 10.9459C22.0117 10.0158 22.8 9.26172 23.7725 9.26172C24.745 9.26172 25.5332 10.0158 25.5332 10.9459V23.5775C25.5332 24.5077 24.745 25.2617 23.7725 25.2617C22.8 25.2617 22.0117 24.5077 22.0117 23.5775V10.9459Z" fill="white" fill-opacity="0.7"/>
</g>
<path d="M50.5671 22.5391V25H42.9987V22.5391H50.5671ZM44.0827 10.7812V25H40.8991V10.7812H44.0827ZM49.5905 16.5039V18.8867H42.9987V16.5039H49.5905ZM50.5769 10.7812V13.252H42.9987V10.7812H50.5769ZM55.1862 10V25H52.1296V10H55.1862ZM60.5671 23.7793L63.3308 14.4336H66.612L62.364 26.582C62.2728 26.849 62.1491 27.1354 61.9929 27.4414C61.8431 27.7474 61.6381 28.0404 61.3777 28.3203C61.1237 28.6003 60.7982 28.8281 60.4011 29.0039C60.004 29.1797 59.5157 29.2676 58.9362 29.2676C58.6433 29.2676 58.4154 29.2513 58.2527 29.2188C58.0964 29.1927 57.8881 29.1471 57.6277 29.082L57.6179 26.8652C57.7025 26.8652 57.7774 26.8652 57.8425 26.8652C57.9141 26.8717 57.9857 26.875 58.0573 26.875C58.4219 26.875 58.7149 26.8359 58.9362 26.7578C59.1641 26.6797 59.3399 26.5625 59.4636 26.4062C59.5938 26.2565 59.698 26.0645 59.7761 25.8301L60.5671 23.7793ZM59.6394 14.4336L61.8269 21.9531L62.198 25.1855L60.1374 25.293L56.3581 14.4336H59.6394ZM78.3405 20.0586H74.7663V17.5879H78.3405C78.8679 17.5879 79.2911 17.5 79.6101 17.3242C79.9356 17.1484 80.1732 16.9076 80.323 16.6016C80.4792 16.2891 80.5573 15.9375 80.5573 15.5469C80.5573 15.1432 80.4792 14.7689 80.323 14.4238C80.1732 14.0723 79.9356 13.7891 79.6101 13.5742C79.2911 13.3594 78.8679 13.252 78.3405 13.252H75.9187V25H72.7351V10.7812H78.3405C79.4734 10.7812 80.4434 10.9863 81.2507 11.3965C82.0645 11.8066 82.6862 12.3698 83.1159 13.0859C83.5521 13.7956 83.7702 14.6094 83.7702 15.5273C83.7702 16.4453 83.5521 17.2428 83.1159 17.9199C82.6862 18.597 82.0645 19.1243 81.2507 19.502C80.4434 19.873 79.4734 20.0586 78.3405 20.0586ZM91.0261 22.4805V17.9492C91.0261 17.6302 90.9773 17.3568 90.8796 17.1289C90.782 16.901 90.629 16.722 90.4206 16.5918C90.2123 16.4616 89.9421 16.3965 89.6101 16.3965C89.3301 16.3965 89.086 16.4453 88.8777 16.543C88.6758 16.6406 88.5196 16.7806 88.4089 16.9629C88.3047 17.1452 88.2527 17.3698 88.2527 17.6367H85.2058C85.2058 17.1615 85.3132 16.7188 85.528 16.3086C85.7429 15.8984 86.0489 15.5371 86.446 15.2246C86.8497 14.9121 87.3314 14.6712 87.8913 14.502C88.4512 14.3262 89.0795 14.2383 89.7761 14.2383C90.6029 14.2383 91.3386 14.3783 91.9831 14.6582C92.6342 14.9316 93.1485 15.3451 93.5261 15.8984C93.9037 16.4453 94.0925 17.1354 94.0925 17.9688V22.3926C94.0925 23.0306 94.1283 23.5319 94.1999 23.8965C94.278 24.2546 94.3887 24.5671 94.532 24.834V25H91.4558C91.3126 24.694 91.2051 24.3164 91.1335 23.8672C91.0619 23.4115 91.0261 22.9492 91.0261 22.4805ZM91.407 18.5547L91.4265 20.2344H89.9128C89.5743 20.2344 89.2813 20.2767 89.0339 20.3613C88.793 20.446 88.5977 20.5632 88.448 20.7129C88.2982 20.8561 88.1876 21.0254 88.1159 21.2207C88.0508 21.4095 88.0183 21.6178 88.0183 21.8457C88.0183 22.0605 88.0704 22.2559 88.1745 22.4316C88.2787 22.6009 88.4219 22.7344 88.6042 22.832C88.7865 22.9297 88.9981 22.9785 89.239 22.9785C89.6361 22.9785 89.9747 22.9004 90.2546 22.7441C90.5411 22.5879 90.7624 22.3991 90.9187 22.1777C91.0749 21.9499 91.153 21.7383 91.153 21.543L91.8855 22.8125C91.7683 23.0729 91.6251 23.3431 91.4558 23.623C91.2865 23.8965 91.0717 24.1536 90.8112 24.3945C90.5508 24.6289 90.2351 24.821 89.864 24.9707C89.4994 25.1204 89.0599 25.1953 88.5456 25.1953C87.8816 25.1953 87.2793 25.0618 86.739 24.7949C86.1986 24.5215 85.7657 24.1471 85.4402 23.6719C85.1211 23.1966 84.9616 22.6497 84.9616 22.0312C84.9616 21.4779 85.0626 20.9863 85.2644 20.5566C85.4662 20.127 85.7689 19.7624 86.1726 19.4629C86.5827 19.1634 87.0971 18.9388 87.7155 18.7891C88.334 18.6328 89.0567 18.5547 89.8835 18.5547H91.407ZM99.1511 16.4648V29.0625H96.1042V14.4336H98.946L99.1511 16.4648ZM105.743 19.5996V19.8047C105.743 20.5729 105.655 21.2858 105.479 21.9434C105.303 22.5944 105.04 23.1641 104.688 23.6523C104.343 24.1406 103.917 24.5215 103.409 24.7949C102.901 25.0618 102.312 25.1953 101.641 25.1953C101.003 25.1953 100.45 25.0618 99.9812 24.7949C99.5189 24.5215 99.1283 24.1439 98.8093 23.6621C98.4968 23.1738 98.2429 22.6172 98.0476 21.9922C97.8588 21.3607 97.7123 20.6868 97.6081 19.9707V19.5703C97.7123 18.8086 97.862 18.1022 98.0573 17.4512C98.2527 16.8001 98.5066 16.237 98.8191 15.7617C99.1316 15.2799 99.5189 14.9056 99.9812 14.6387C100.443 14.3717 100.994 14.2383 101.632 14.2383C102.296 14.2383 102.885 14.3652 103.399 14.6191C103.913 14.873 104.343 15.2376 104.688 15.7129C105.04 16.1816 105.303 16.7448 105.479 17.4023C105.655 18.0599 105.743 18.7923 105.743 19.5996ZM102.686 19.8047V19.5996C102.686 19.1699 102.654 18.776 102.589 18.418C102.523 18.0534 102.419 17.7376 102.276 17.4707C102.133 17.1973 101.944 16.9857 101.71 16.8359C101.475 16.6862 101.189 16.6113 100.85 16.6113C100.486 16.6113 100.176 16.6699 99.9226 16.7871C99.6687 16.9043 99.4636 17.0768 99.3073 17.3047C99.1511 17.526 99.0372 17.7995 98.9655 18.125C98.9004 18.4505 98.8646 18.8216 98.8581 19.2383V20.3125C98.8646 20.8008 98.933 21.237 99.0632 21.6211C99.1999 21.9987 99.4115 22.2949 99.698 22.5098C99.9909 22.7181 100.382 22.8223 100.87 22.8223C101.215 22.8223 101.501 22.7474 101.729 22.5977C101.964 22.4414 102.149 22.2233 102.286 21.9434C102.429 21.6634 102.53 21.3411 102.589 20.9766C102.654 20.612 102.686 20.2214 102.686 19.8047ZM112.344 25.1953C111.505 25.1953 110.753 25.0618 110.089 24.7949C109.425 24.528 108.861 24.1602 108.399 23.6914C107.943 23.2161 107.595 22.6693 107.354 22.0508C107.113 21.4323 106.993 20.7715 106.993 20.0684V19.6973C106.993 18.9095 107.104 18.1836 107.325 17.5195C107.546 16.8555 107.869 16.2793 108.292 15.791C108.721 15.2962 109.249 14.9154 109.874 14.6484C110.499 14.375 111.212 14.2383 112.012 14.2383C112.761 14.2383 113.428 14.362 114.014 14.6094C114.6 14.8503 115.095 15.1986 115.499 15.6543C115.902 16.1035 116.208 16.6471 116.417 17.2852C116.632 17.9167 116.739 18.6263 116.739 19.4141V20.6641H108.223V18.7012H113.751V18.4668C113.751 18.0957 113.682 17.7702 113.546 17.4902C113.415 17.2103 113.22 16.9954 112.96 16.8457C112.706 16.6895 112.384 16.6113 111.993 16.6113C111.622 16.6113 111.313 16.6895 111.065 16.8457C110.818 17.002 110.619 17.2233 110.469 17.5098C110.326 17.7897 110.222 18.1185 110.157 18.4961C110.092 18.8672 110.059 19.2676 110.059 19.6973V20.0684C110.059 20.4785 110.115 20.8529 110.225 21.1914C110.336 21.5299 110.499 21.8197 110.714 22.0605C110.928 22.3014 111.189 22.4902 111.495 22.627C111.801 22.7637 112.149 22.832 112.54 22.832C113.022 22.832 113.481 22.7409 113.917 22.5586C114.353 22.3698 114.731 22.0768 115.05 21.6797L116.475 23.3105C116.26 23.623 115.958 23.9258 115.567 24.2188C115.183 24.5052 114.721 24.7396 114.18 24.9219C113.64 25.1042 113.028 25.1953 112.344 25.1953ZM121.436 10V25H118.38V10H121.436ZM128.614 25.1953C127.774 25.1953 127.022 25.0618 126.358 24.7949C125.694 24.528 125.131 24.1602 124.669 23.6914C124.213 23.2161 123.865 22.6693 123.624 22.0508C123.383 21.4323 123.262 20.7715 123.262 20.0684V19.6973C123.262 18.9095 123.373 18.1836 123.594 17.5195C123.816 16.8555 124.138 16.2793 124.561 15.791C124.991 15.2962 125.518 14.9154 126.143 14.6484C126.768 14.375 127.481 14.2383 128.282 14.2383C129.031 14.2383 129.698 14.362 130.284 14.6094C130.87 14.8503 131.365 15.1986 131.768 15.6543C132.172 16.1035 132.478 16.6471 132.686 17.2852C132.901 17.9167 133.009 18.6263 133.009 19.4141V20.6641H124.493V18.7012H130.02V18.4668C130.02 18.0957 129.952 17.7702 129.815 17.4902C129.685 17.2103 129.49 16.9954 129.229 16.8457C128.975 16.6895 128.653 16.6113 128.262 16.6113C127.891 16.6113 127.582 16.6895 127.335 16.8457C127.087 17.002 126.889 17.2233 126.739 17.5098C126.596 17.7897 126.492 18.1185 126.426 18.4961C126.361 18.8672 126.329 19.2676 126.329 19.6973V20.0684C126.329 20.4785 126.384 20.8529 126.495 21.1914C126.606 21.5299 126.768 21.8197 126.983 22.0605C127.198 22.3014 127.458 22.4902 127.764 22.627C128.07 22.7637 128.419 22.832 128.809 22.832C129.291 22.832 129.75 22.7409 130.186 22.5586C130.622 22.3698 131 22.0768 131.319 21.6797L132.745 23.3105C132.53 23.623 132.227 23.9258 131.837 24.2188C131.453 24.5052 130.99 24.7396 130.45 24.9219C129.91 25.1042 129.298 25.1953 128.614 25.1953ZM137.55 16.8945V25H134.503V14.4336H137.364L137.55 16.8945ZM140.704 14.3555L140.655 17.1973C140.525 17.1777 140.356 17.1615 140.147 17.1484C139.939 17.1289 139.76 17.1191 139.61 17.1191C139.219 17.1191 138.881 17.168 138.594 17.2656C138.315 17.3568 138.08 17.4935 137.891 17.6758C137.709 17.8581 137.572 18.0859 137.481 18.3594C137.39 18.6263 137.344 18.9355 137.344 19.2871L136.768 19.0039C136.768 18.3073 136.837 17.6693 136.973 17.0898C137.11 16.5104 137.309 16.0091 137.569 15.5859C137.829 15.1562 138.148 14.8242 138.526 14.5898C138.904 14.3555 139.333 14.2383 139.815 14.2383C139.971 14.2383 140.131 14.248 140.294 14.2676C140.456 14.2871 140.593 14.3164 140.704 14.3555ZM145.255 14.4336V25H142.198V14.4336H145.255ZM142.305 13.2129L144.239 10.1758H147.501L144.796 13.2129H142.305ZM153.135 22.4805V17.9492C153.135 17.6302 153.087 17.3568 152.989 17.1289C152.891 16.901 152.738 16.722 152.53 16.5918C152.322 16.4616 152.051 16.3965 151.719 16.3965C151.44 16.3965 151.195 16.4453 150.987 16.543C150.785 16.6406 150.629 16.7806 150.518 16.9629C150.414 17.1452 150.362 17.3698 150.362 17.6367H147.315C147.315 17.1615 147.423 16.7188 147.637 16.3086C147.852 15.8984 148.158 15.5371 148.555 15.2246C148.959 14.9121 149.441 14.6712 150.001 14.502C150.561 14.3262 151.189 14.2383 151.885 14.2383C152.712 14.2383 153.448 14.3783 154.092 14.6582C154.744 14.9316 155.258 15.3451 155.635 15.8984C156.013 16.4453 156.202 17.1354 156.202 17.9688V22.3926C156.202 23.0306 156.238 23.5319 156.309 23.8965C156.387 24.2546 156.498 24.5671 156.641 24.834V25H153.565C153.422 24.694 153.315 24.3164 153.243 23.8672C153.171 23.4115 153.135 22.9492 153.135 22.4805ZM153.516 18.5547L153.536 20.2344H152.022C151.684 20.2344 151.391 20.2767 151.143 20.3613C150.902 20.446 150.707 20.5632 150.557 20.7129C150.408 20.8561 150.297 21.0254 150.225 21.2207C150.16 21.4095 150.128 21.6178 150.128 21.8457C150.128 22.0605 150.18 22.2559 150.284 22.4316C150.388 22.6009 150.531 22.7344 150.714 22.832C150.896 22.9297 151.107 22.9785 151.348 22.9785C151.745 22.9785 152.084 22.9004 152.364 22.7441C152.65 22.5879 152.872 22.3991 153.028 22.1777C153.184 21.9499 153.262 21.7383 153.262 21.543L153.995 22.8125C153.878 23.0729 153.734 23.3431 153.565 23.623C153.396 23.8965 153.181 24.1536 152.921 24.3945C152.66 24.6289 152.344 24.821 151.973 24.9707C151.609 25.1204 151.169 25.1953 150.655 25.1953C149.991 25.1953 149.389 25.0618 148.848 24.7949C148.308 24.5215 147.875 24.1471 147.55 23.6719C147.231 23.1966 147.071 22.6497 147.071 22.0312C147.071 21.4779 147.172 20.9863 147.374 20.5566C147.576 20.127 147.878 19.7624 148.282 19.4629C148.692 19.1634 149.206 18.9388 149.825 18.7891C150.443 18.6328 151.166 18.5547 151.993 18.5547H153.516Z" fill="black"/>
</g>
<defs>
<filter id="filter0_d_6_3" x="7.80673" y="6.2373" width="5.52148" height="20.5263" filterUnits="userSpaceOnUse" color-interpolation-filters="sRGB">
<feFlood flood-opacity="0" result="BackgroundImageFix"/>
<feColorMatrix in="SourceAlpha" type="matrix" values="0 0 0 0 0 0 0 0 0 0 0 0 0 0 0 0 0 0 127 0" result="hardAlpha"/>
<feOffset dy="0.5"/>
<feGaussianBlur stdDeviation="0.5"/>
<feComposite in2="hardAlpha" operator="out"/>
<feColorMatrix type="matrix" values="0 0 0 0 0 0 0 0 0 0 0 0 0 0 0 0 0 0 0.12 0"/>
<feBlend mode="normal" in2="BackgroundImageFix" result="effect1_dropShadow_6_3"/>
<feBlend mode="normal" in="SourceGraphic" in2="effect1_dropShadow_6_3" result="shape"/>
</filter>
<filter id="filter1_d_6_3" x="14.4123" y="12.9727" width="5.52151" height="13.7894" filterUnits="userSpaceOnUse" color-interpolation-filters="sRGB">
<feFlood flood-opacity="0" result="BackgroundImageFix"/>
<feColorMatrix in="SourceAlpha" type="matrix" values="0 0 0 0 0 0 0 0 0 0 0 0 0 0 0 0 0 0 127 0" result="hardAlpha"/>
<feOffset dy="0.5"/>
<feGaussianBlur stdDeviation="0.5"/>
<feComposite in2="hardAlpha" operator="out"/>
<feColorMatrix type="matrix" values="0 0 0 0 0 0 0 0 0 0 0 0 0 0 0 0 0 0 0.12 0"/>
<feBlend mode="normal" in2="BackgroundImageFix" result="effect1_dropShadow_6_3"/>
<feBlend mode="normal" in="SourceGraphic" in2="effect1_dropShadow_6_3" result="shape"/>
</filter>
<filter id="filter2_d_6_3" x="21.0117" y="8.76172" width="5.52151" height="18" filterUnits="userSpaceOnUse" color-interpolation-filters="sRGB">
<feFlood flood-opacity="0" result="BackgroundImageFix"/>
<feColorMatrix in="SourceAlpha" type="matrix" values="0 0 0 0 0 0 0 0 0 0 0 0 0 0 0 0 0 0 127 0" result="hardAlpha"/>
<feOffset dy="0.5"/>
<feGaussianBlur stdDeviation="0.5"/>
<feComposite in2="hardAlpha" operator="out"/>
<feColorMatrix type="matrix" values="0 0 0 0 0 0 0 0 0 0 0 0 0 0 0 0 0 0 0.12 0"/>
<feBlend mode="normal" in2="BackgroundImageFix" result="effect1_dropShadow_6_3"/>
<feBlend mode="normal" in="SourceGraphic" in2="effect1_dropShadow_6_3" result="shape"/>
</filter>
<clipPath id="clip0_6_3">
<rect width="161" height="32" fill="white"/>
</clipPath>
</defs>
</svg>
